<?xml version="1.0" encoding="UTF-8"?>
<svg version="1.1" xmlns="http://www.w3.org/2000/svg" width="617" height="597">
<path d="M0 0 C2.61098365 0.56630924 5.17022386 1.18917923 7.75 1.875 C9.18201529 2.24845722 10.61430156 2.6208771 12.046875 2.9921875 C12.72556641 3.1684668 13.40425781 3.34474609 14.10351562 3.52636719 C16.38834824 4.09698707 18.68451431 4.57154399 21 5 C21 5.66 21 6.32 21 7 C21.73734375 7.1134375 22.4746875 7.226875 23.234375 7.34375 C32.40198161 9.51911428 40.94977097 18.1704707 45.828125 25.89453125 C54.05396091 41.44775011 52.93615827 56.12404812 48.2265625 72.7265625 C42.5734161 88.64872712 29.73673703 101.26042904 15 109 C-32.52241764 130.91068742 -94.90442104 118.42745099 -144.83605957 112.38964844 C-169.79697505 109.37518655 -194.74937805 106.95738581 -219.83227539 105.22003174 C-221.95075205 105.07288129 -224.06908008 104.92357572 -226.18725586 104.77215576 C-281.32211892 100.83110854 -337.95588844 98.8388086 -393 105 C-394.30630371 105.14405273 -395.61260742 105.28810547 -396.95849609 105.43652344 C-403.27749699 106.14623422 -409.58669208 106.90231666 -415.88574219 107.7722168 C-418 108 -418 108 -422 108 C-421.67 106.68 -421.34 105.36 -421 104 C-420.360625 103.87625 -419.72125 103.7525 -419.0625 103.625 C-418.0415625 103.315625 -418.0415625 103.315625 -417 103 C-416.505 102.01 -416.505 102.01 -416 101 C-414.3996582 100.08959961 -414.3996582 100.08959961 -412.30078125 99.15234375 C-411.51372803 98.79841553 -410.7266748 98.4444873 -409.91577148 98.07983398 C-409.05669189 97.70286377 -408.1976123 97.32589355 -407.3125 96.9375 C-406.43215088 96.54699463 -405.55180176 96.15648926 -404.64477539 95.75415039 C-397.77793861 92.73085906 -390.87014942 89.80636141 -383.9375 86.9375 C-382.99237549 86.54361084 -382.04725098 86.14972168 -381.07348633 85.74389648 C-379.75127075 85.20357788 -379.75127075 85.20357788 -378.40234375 84.65234375 C-377.62366943 84.33257568 -376.84499512 84.01280762 -376.04272461 83.68334961 C-374 83 -374 83 -371 83 C-370.505 81.515 -370.505 81.515 -370 80 C-370 80.66 -370 81.32 -370 82 C-369.4225 81.505 -368.845 81.01 -368.25 80.5 C-366 79 -366 79 -362 79 C-360.31977925 78.54763288 -358.65276189 78.04420209 -357 77.5 C-353.65297834 76.39793189 -351.61299856 76 -348 76 C-347.67 75.34 -347.34 74.68 -347 74 C-344.15649404 73.60406879 -341.3351283 73.49150146 -338.46875 73.34375 C-337.24671875 73.17359375 -337.24671875 73.17359375 -336 73 C-335.67 72.34 -335.34 71.68 -335 71 C-332.84643555 70.45727539 -332.84643555 70.45727539 -329.94921875 70.03515625 C-328.31605713 69.78789795 -328.31605713 69.78789795 -326.64990234 69.53564453 C-325.44543457 69.35888184 -324.2409668 69.18211914 -323 69 C-321.05645697 68.69143444 -319.11292516 68.38278443 -317.16995239 68.07064819 C-314.42004029 67.63000098 -311.6686552 67.1989453 -308.91723633 66.76782227 C-306.80455514 66.43625312 -304.69232314 66.10191313 -302.58007812 65.76757812 C-268.27065262 60.36636068 -233.49955928 61.46569936 -198.92456055 63.28833008 C-198.05136169 63.33427811 -197.17816284 63.38022614 -196.27850342 63.42756653 C-194.64537068 63.51458415 -193.01234339 63.60361557 -191.37945557 63.69511414 C-186.91136333 63.93736487 -182.47475712 64.04142951 -178 64 C-178 64.66 -178 65.32 -178 66 C-176.86111328 65.96535645 -175.72222656 65.93071289 -174.54882812 65.89501953 C-167.86401231 65.90038064 -161.24873066 66.70032105 -154.61180115 67.42043686 C-152.15775025 67.68629589 -149.70308384 67.94564724 -147.24816895 68.20339966 C-140.27126498 68.93709503 -133.29557091 69.68198727 -126.3203125 70.43115234 C-77.46564895 76.08838044 -77.46564895 76.08838044 -28.4375 75.125 C-27.62039551 75.04668945 -26.80329102 74.96837891 -25.96142578 74.88769531 C-21.51865001 74.51100175 -21.51865001 74.51100175 -18 72 C-18 72.66 -18 73.32 -18 74 C-17.38511719 73.7834375 -16.77023437 73.566875 -16.13671875 73.34375 C-15.32847656 73.0653125 -14.52023437 72.786875 -13.6875 72.5 C-12.88699219 72.2215625 -12.08648437 71.943125 -11.26171875 71.65625 C-9 71 -9 71 -6 71 C-5.67 70.34 -5.34 69.68 -5 69 C-4.319375 68.731875 -3.63875 68.46375 -2.9375 68.1875 C6.04121908 64.55780505 12.29939191 59.11048238 16.3125 50.25 C19.83759449 41.74217701 20.6680781 32.41109634 17.375 23.625 C14.86801746 18.22876454 11.66815566 12.94870655 6.8125 9.40234375 C6.214375 8.93957031 5.61625 8.47679687 5 8 C5 7.34 5 6.68 5 6 C3.7934375 5.5978125 3.7934375 5.5978125 2.5625 5.1875 C1.716875 4.795625 0.87125 4.40375 0 4 C-0.33 3.01 -0.66 2.02 -1 1 C-0.67 0.67 -0.34 0.34 0 0 Z " fill="#FDFDFD" transform="translate(483,186)"/>
<path d="M0 0 C0.7734375 0.51949219 1.546875 1.03898437 2.34375 1.57421875 C8.13870823 5.67236558 12.0781214 10.69887611 16.15234375 16.42578125 C17.90144644 19.00953766 17.90144644 19.00953766 20 21 C20.33 21.99 20.66 22.98 21 24 C21.98536454 26.6404357 22.97237603 29.28019334 23.96484375 31.91796875 C29.67717231 48.9256187 28.9734062 69.11778312 23 86 C22.63777344 87.06992188 22.27554687 88.13984375 21.90234375 89.2421875 C19.09035626 96.73446602 14.97914359 102.77847822 10 109 C9.46761719 109.70898438 8.93523437 110.41796875 8.38671875 111.1484375 C-5.44617136 128.51678091 -28.93369186 135.20822165 -50 138 C-58.6189183 138.90485441 -67.25950681 139.28449245 -75.91796875 139.55761719 C-77.99771548 139.62492606 -80.07689242 139.70293145 -82.15625 139.78125 C-83.52081192 139.82617591 -84.8853949 139.87046773 -86.25 139.9140625 C-88.05210937 139.9752124 -88.05210937 139.9752124 -89.890625 140.03759766 C-93.12310838 140.06697068 -96.29140824 139.83028497 -99.51049805 139.54101562 C-106.85892713 138.88378772 -114.20983144 138.65103551 -121.58203125 138.4296875 C-123.05027067 138.38398112 -124.5185069 138.33817223 -125.98674011 138.29226685 C-129.03984332 138.19765246 -132.09301099 138.10558778 -135.14624023 138.01513672 C-139.04427188 137.89926255 -142.94198183 137.77487531 -146.83968067 137.6483593 C-149.86197395 137.55155082 -152.88441619 137.46027975 -155.90692711 137.37054825 C-157.3441942 137.32702873 -158.78140432 137.28158004 -160.21854591 137.23409653 C-162.22730346 137.16834863 -164.23633413 137.11111499 -166.24536133 137.05419922 C-167.38387039 137.01946503 -168.52237946 136.98473083 -169.69538879 136.94894409 C-173.20577542 137.00317921 -176.53822062 137.43381752 -180 138 C-180 137.67 -180 137.34 -180 137 C-217.1572233 136.62728094 -253.20707569 138.72959145 -290 144 C-291.33064041 144.19007446 -292.66128783 144.38009979 -293.99194336 144.57006836 C-294.98460205 144.7119458 -295.97726074 144.85382324 -297 145 C-296.89453125 143.25390625 -296.89453125 143.25390625 -296 141 C-293.90570658 139.4782052 -291.92747577 138.19976648 -289.6875 136.9375 C-285.24489001 134.40218043 -285.24489001 134.40218043 -281.046875 131.4921875 C-278.08732308 129.33465156 -274.84026868 127.79484487 -271.5625 126.1875 C-270.86108887 125.84074219 -270.15967773 125.49398437 -269.43701172 125.13671875 C-250.86545518 116 -250.86545518 116 -248 116 C-247.67 115.34 -247.34 114.68 -247 114 C-244.46755714 112.91382404 -241.96355235 111.93206341 -239.375 111 C-238.67503906 110.73960937 -237.97507813 110.47921875 -237.25390625 110.2109375 C-232.88240277 108.60507908 -228.49548023 107.22693238 -224 106 C-223.2589502 105.7947168 -222.51790039 105.58943359 -221.75439453 105.37792969 C-219.29721091 104.700257 -216.83656994 104.03654692 -214.375 103.375 C-213.54226562 103.14554687 -212.70953125 102.91609375 -211.8515625 102.6796875 C-207.82227491 101.60178891 -204.21301197 100.67327662 -200 101 C-199.505 99.515 -199.505 99.515 -199 98 C-199 98.66 -199 99.32 -199 100 C-196.6568787 99.74438677 -194.32156597 99.40729228 -192 99 C-191.67 98.34 -191.34 97.68 -191 97 C-191 97.66 -191 98.32 -191 99 C-190.34 98.67 -189.68 98.34 -189 98 C-181.49940581 96.95286431 -174.00168929 96.67278105 -166.4375 96.4375 C-165.77402557 96.41598877 -165.11055115 96.39447754 -164.42697144 96.37231445 C-148.60130542 95.87346672 -132.77272253 95.9385385 -116.94116211 96.03686523 C-95.22760292 96.1722876 -95.22760292 96.1722876 -73.6875 93.6875 C-72.56770752 93.49075684 -72.56770752 93.49075684 -71.42529297 93.29003906 C-57.45926976 90.70697204 -43.91733698 85.75623489 -34.68359375 74.44921875 C-26.95788817 63.21019926 -25.11413697 52.0858211 -27.25 38.8359375 C-29.32387554 28.22892825 -34.21889876 19.33582593 -43 12.75 C-43.99 12.1725 -44.98 11.595 -46 11 C-47.14731617 10.04344242 -48.29298914 9.08491234 -49.4375 8.125 C-56.74790736 2.55381915 -66.35423343 -0.18014998 -75 -3 C-75.33 -2.34 -75.66 -1.68 -76 -1 C-76 -1.66 -76 -2.32 -76 -3 C-81.94 -3.99 -87.88 -4.98 -94 -6 C-94 -6.99 -94 -7.98 -94 -9 C-92.73160474 -9.50615298 -91.46016898 -10.00469099 -90.1875 -10.5 C-89.47980469 -10.7784375 -88.77210938 -11.056875 -88.04296875 -11.34375 C-86 -12 -86 -12 -83 -12 C-82.67 -12.66 -82.34 -13.32 -82 -14 C-81.01 -13.505 -81.01 -13.505 -80 -13 C-79.67 -13.99 -79.34 -14.98 -79 -16 C-79 -15.34 -79 -14.68 -79 -14 C-78.030625 -14.309375 -77.06125 -14.61875 -76.0625 -14.9375 C-51.20873581 -21.93227196 -20.56606283 -15.18460973 0 0 Z " fill="#FDFDFD" transform="translate(422,88)"/>
<path d="M0 0 C1.7936499 0.25305908 1.7936499 0.25305908 3.62353516 0.51123047 C34.71162399 5.02369293 74.78754827 11.3767389 95.875 37.5 C104.67984838 49.55746295 107.49730892 63.54352624 105.57421875 78.2578125 C102.84716653 93.21477374 96.15494352 105.51615003 84.07421875 114.90625 C75.85423301 120.50461386 66.70997071 125.48130559 56.72265625 126.6484375 C56.15417969 126.76445312 55.58570313 126.88046875 55 127 C54.67 127.66 54.34 128.32 54 129 C52.96875 128.979375 51.9375 128.95875 50.875 128.9375 C47.1838482 128.85875934 47.1838482 128.85875934 44.40234375 129.61328125 C39.61213255 130.15774842 35.38219274 129.20688005 30.6875 128.25 C29.78837891 128.07984375 28.88925781 127.9096875 27.96289062 127.734375 C22.13343143 126.58787254 16.58490233 125.0234037 11 123 C11 122.01 11 121.02 11 120 C11.99257813 119.84144531 12.98515625 119.68289063 14.0078125 119.51953125 C31.25767286 116.6210417 47.35111158 111.86098357 58 97 C61.99579258 89.94076645 62.96177223 81.83065635 61.125 73.9375 C57.2870457 63.17417038 48.00058124 56.76532642 38.09619141 51.96777344 C21.40762735 44.26296702 3.75678585 39.53912708 -14 35 C-14.73005249 34.81286438 -15.46010498 34.62572876 -16.21228027 34.43292236 C-45.00106148 27.06977185 -74.00445164 20.73827548 -103.07891846 14.61572266 C-105.88362153 14.02453094 -108.68775007 13.43069343 -111.49169922 12.8359375 C-115.5536109 11.97495926 -119.61670064 11.11984797 -123.68118286 10.27108765 C-125.12505528 9.96926575 -126.5686474 9.66609932 -128.01193237 9.36148071 C-129.96262238 8.95075575 -131.91486703 8.54743482 -133.8671875 8.14453125 C-134.94081543 7.92128174 -136.01444336 7.69803223 -137.12060547 7.46801758 C-139.81011044 7.0308647 -142.28197133 6.90814505 -145 7 C-145 6.34 -145 5.68 -145 5 C-146.19882813 4.83564453 -146.19882813 4.83564453 -147.421875 4.66796875 C-155.09327125 3.56047845 -162.51858189 2.0220049 -170 0 C-169.67 -0.99 -169.34 -1.98 -169 -3 C-165.78767875 -4.07077375 -163.36062193 -4 -160 -4 C-159.01 -4.33 -158.02 -4.66 -157 -5 C-155.60820378 -5.11817303 -154.21179439 -5.18615969 -152.81542969 -5.22119141 C-151.96450745 -5.24430893 -151.11358521 -5.26742645 -150.23687744 -5.29124451 C-149.30792664 -5.31114944 -148.37897583 -5.33105438 -147.421875 -5.3515625 C-146.44410095 -5.37521378 -145.4663269 -5.39886505 -144.45892334 -5.42323303 C-141.22272519 -5.49770296 -137.98645392 -5.56267184 -134.75 -5.625 C-133.08215454 -5.65818832 -133.08215454 -5.65818832 -131.38061523 -5.69204712 C-87.67867736 -6.52456544 -43.35356106 -6.12403374 0 0 Z " fill="#FDFDFD" transform="translate(303,316)"/>
<path d="" fill="#FEFEFE" transform="translate(0,0)"/>
<path d="" fill="#FFFFFF" transform="translate(0,0)"/>
<path d="" fill="#FEFEFE" transform="translate(0,0)"/>
<path d="" fill="#FFFFFF" transform="translate(0,0)"/>
<path d="" fill="#FFFFFF" transform="translate(0,0)"/>
<path d="M0 0 C2 1 2 1 2 1 Z " fill="#FFFFFF" transform="translate(95,291)"/>
<path d="M0 0 C2 1 2 1 2 1 Z " fill="#FFFFFF" transform="translate(267,226)"/>
<path d="" fill="#FFFFFF" transform="translate(0,0)"/>
<path d="" fill="#FFFFFF" transform="translate(0,0)"/>
<path d="" fill="#FEFEFE" transform="translate(0,0)"/>
<path d="" fill="#FFFFFF" transform="translate(0,0)"/>
<path d="" fill="#FFFFFF" transform="translate(0,0)"/>
<path d="" fill="#FFFFFF" transform="translate(0,0)"/>
<path d="" fill="#FFFFFF" transform="translate(0,0)"/>
<path d="" fill="#FFFFFF" transform="translate(0,0)"/>
<path d="" fill="#FFFFFF" transform="translate(0,0)"/>
<path d="" fill="#FFFFFF" transform="translate(0,0)"/>
<path d="" fill="#FFFFFF" transform="translate(0,0)"/>
<path d="" fill="#FFFFFF" transform="translate(0,0)"/>
<path d="" fill="#FFFFFF" transform="translate(0,0)"/>
<path d="" fill="#FFFFFF" transform="translate(0,0)"/>
<path d="" fill="#FFFFFF" transform="translate(0,0)"/>
<path d="" fill="#FFFFFF" transform="translate(0,0)"/>
<path d="" fill="#FFFFFF" transform="translate(0,0)"/>
<path d="" fill="#FFFFFF" transform="translate(0,0)"/>
<path d="" fill="#FFFFFF" transform="translate(0,0)"/>
<path d="" fill="#FFFFFF" transform="translate(0,0)"/>
<path d="" fill="#FFFFFF" transform="translate(0,0)"/>
<path d="" fill="#FFFFFF" transform="translate(0,0)"/>
<path d="" fill="#FFFFFF" transform="translate(0,0)"/>
<path d="" fill="#FFFFFF" transform="translate(0,0)"/>
<path d="" fill="#FFFFFF" transform="translate(0,0)"/>
<path d="" fill="#FFFFFF" transform="translate(0,0)"/>
<path d="" fill="#FFFFFF" transform="translate(0,0)"/>
<path d="" fill="#FFFFFF" transform="translate(0,0)"/>
<path d="" fill="#FFFFFF" transform="translate(0,0)"/>
<path d="" fill="#FFFFFF" transform="translate(0,0)"/>
<path d="" fill="#FFFFFF" transform="translate(0,0)"/>
<path d="" fill="#FFFFFF" transform="translate(0,0)"/>
<path d="" fill="#FFFFFF" transform="translate(0,0)"/>
<path d="" fill="#FFFFFF" transform="translate(0,0)"/>
<path d="" fill="#FFFFFF" transform="translate(0,0)"/>
<path d="" fill="#FFFFFF" transform="translate(0,0)"/>
<path d="" fill="#FFFFFF" transform="translate(0,0)"/>
<path d="" fill="#FFFFFF" transform="translate(0,0)"/>
<path d="" fill="#FFFFFF" transform="translate(0,0)"/>
<path d="" fill="#FFFFFF" transform="translate(0,0)"/>
<path d="" fill="#FFFFFF" transform="translate(0,0)"/>
<path d="" fill="#FFFFFF" transform="translate(0,0)"/>
<path d="" fill="#FFFFFF" transform="translate(0,0)"/>
<path d="" fill="#FFFFFF" transform="translate(0,0)"/>
<path d="" fill="#FFFFFF" transform="translate(0,0)"/>
<path d="" fill="#FFFFFF" transform="translate(0,0)"/>
<path d="" fill="#FFFFFF" transform="translate(0,0)"/>
<path d="" fill="#FFFFFF" transform="translate(0,0)"/>
<path d="" fill="#FFFFFF" transform="translate(0,0)"/>
<path d="" fill="#FFFFFF" transform="translate(0,0)"/>
<path d="" fill="#FFFFFF" transform="translate(0,0)"/>
<path d="" fill="#FFFFFF" transform="translate(0,0)"/>
<path d="" fill="#FFFFFF" transform="translate(0,0)"/>
<path d="" fill="#FFFFFF" transform="translate(0,0)"/>
<path d="" fill="#FFFFFF" transform="translate(0,0)"/>
<path d="" fill="#FFFFFF" transform="translate(0,0)"/>
<path d="" fill="#FFFFFF" transform="translate(0,0)"/>
<path d="" fill="#FFFFFF" transform="translate(0,0)"/>
<path d="" fill="#FFFFFF" transform="translate(0,0)"/>
<path d="" fill="#FFFFFF" transform="translate(0,0)"/>
<path d="" fill="#FFFFFF" transform="translate(0,0)"/>
<path d="" fill="#FFFFFF" transform="translate(0,0)"/>
<path d="" fill="#FFFFFF" transform="translate(0,0)"/>
<path d="" fill="#FFFFFF" transform="translate(0,0)"/>
<path d="" fill="#FFFFFF" transform="translate(0,0)"/>
<path d="" fill="#FFFFFF" transform="translate(0,0)"/>
<path d="" fill="#FFFFFF" transform="translate(0,0)"/>
<path d="" fill="#FFFFFF" transform="translate(0,0)"/>
<path d="" fill="#FFFFFF" transform="translate(0,0)"/>
<path d="" fill="#FFFFFF" transform="translate(0,0)"/>
<path d="" fill="#FFFFFF" transform="translate(0,0)"/>
<path d="" fill="#FFFFFF" transform="translate(0,0)"/>
</svg>
